<?xml version="1.0" encoding="utf-8"?>
<!-- Svg Vector Icons : http://www.onlinewebfonts.com/icon -->
<!DOCTYPE svg PUBLIC "-//W3C//DTD SVG 1.1//EN" "http://www.w3.org/Graphics/SVG/1.1/DTD/svg11.dtd">
<svg version="1.1" xmlns="http://www.w3.org/2000/svg" xmlns:xlink="http://www.w3.org/1999/xlink" x="0px" y="0px" viewBox="0 0 1000 1000" enable-background="new 0 0 1000 1000" xml:space="preserve">
<metadata> Svg Vector Icons : http://www.onlinewebfonts.com/icon </metadata>
<g><g transform="translate(0.000000,511.000000) scale(0.100000,-0.100000)"><path d="M2276.9,4967.1c-110.7-53.6-164.3-214.3-146.4-428.5c21.4-203.5,114.2-314.3,264.2-314.3h85.7V2867.3c0-1503.5,3.6-1528.5,217.8-1603.5c64.3-21.4,232.1-39.3,375-39.3h264.3V1071V917.4l-321.4-100c-428.5-132.1-714.2-321.4-817.8-535.7c-71.4-146.4-75-182.1-42.9-350c135.7-646.4,757.1-1532,1332.1-1899.9c182.1-114.2,203.5-139.3,185.7-228.5c-7.1-53.6-85.7-539.3-175-1078.5c-150-953.5-153.6-985.6-96.4-1107.1c71.4-142.9,257.1-250,614.3-346.4c185.7-53.6,367.8-64.3,928.5-60.7c660.7,0,710.7,7.2,989.2,96.4c328.5,110.7,460.7,207.1,507.1,364.3c21.4,89.3-142.8,1278.5-300,2114.2c-17.9,107.1-7.1,121.4,185.7,246.4c567.8,360.7,1157.1,1185.6,1317.8,1846.3c57.2,228.6,57.2,235.7-21.4,400c-96.4,200-378.5,400-710.7,503.5l-217.8,67.8v189.3v185.7h267.8c289.3,0,453.6,57.1,517.8,175c21.4,46.4,35.7,571.4,35.7,1446.3v1378.5h89.3c50,0,132.1,39.3,178.6,89.3c75,71.4,89.3,121.4,89.3,303.5c0,182.1-14.3,232.1-89.3,303.6l-85.7,89.3l-2671.2-3.6C3233.9,5006.4,2330.4,4992.1,2276.9,4967.1z M7658.7,4617.2v-178.6H4998.1H2337.6v178.6v178.6h2660.5h2660.6V4617.2z M7337.3,2899.4c0-842.8-14.3-1346.3-35.7-1392.8c-35.7-64.3-100-67.8-2278.4-67.8c-1696.3,0-2253.4,10.7-2285.6,42.9c-32.2,32.1-42.9,389.3-42.9,1392.8v1349.9H5016h2321.3V2899.4z M6480.2,1081.7c0-167.9,14.3-164.3-446.4-89.3c-650,110.7-1532.1,107.1-2357-7.1l-160.7-21.4V1096v128.6h1482h1482.1V1081.7z M6194.5,767.4c635.7-132.1,1010.6-292.8,1196.3-514.3c117.8-139.3,107.1-264.2-57.1-653.5c-228.6-550-721.4-1149.9-1171.4-1428.5c-117.8-71.4-221.4-153.6-232.1-182.1c-10.7-25,60.7-539.3,157.1-1139.2c125-771.4,167.9-1114.2,142.9-1157.1c-67.9-128.6-550-267.8-1071.4-307.1c-539.3-42.9-1328.5,92.8-1539.2,260.7l-78.5,67.9l167.8,1032.1c167.9,1039.2,185.7,1214.2,135.7,1285.6c-14.3,17.9-89.3,75-164.3,121.4C3112.5-1503.9,2505.4-682.5,2369.7-79c-39.3,182.1-39.3,207.1,28.6,296.4c175,239.3,649.9,442.8,1296.3,557.1c460.7,82.1,528.5,85.7,1374.9,75C5673.1,838.8,5933.8,821,6194.5,767.4z"/><path d="M2934,3917.2c-42.9-42.8-28.6-150,25-167.8c25-10.7,125-32.2,221.4-42.9c96.4-14.3,203.6-57.1,239.3-92.9c96.4-100,260.7-89.3,335.7,25c53.6,85.7,53.6,103.6,7.1,189.3c-53.6,92.9-117.8,103.6-389.2,67.8c-28.6-3.6-135.7,7.1-232.1,21.4C3041.1,3931.5,2948.2,3931.5,2934,3917.2z"/><path d="M4051.7,581.7c-585.7-82.1-1075-250-1228.5-425c-42.9-46.4-71.4-128.6-71.4-207.1c0-400,853.5-660.7,2157-657.1c1049.9,0,1760.6,153.6,2049.9,439.3c117.8,117.8,135.7,150,114.2,250c-32.1,157.1-132.1,253.5-385.7,367.8c-392.8,175-785.7,235.7-1635.6,250C4630.3,606.7,4180.3,599.6,4051.7,581.7z M5919.5,353.2c610.7-100,1021.4-292.8,932.1-439.3c-225-371.4-1960.6-557.1-3092.7-332.1c-378.5,75-728.5,221.4-792.8,328.6c-110.7,185.7,500,414.2,1328.5,492.8C4698.1,442.5,5519.5,417.4,5919.5,353.2z"/></g></g>
</svg>